<?xml version="1.0" encoding="utf-8"?>
<!-- Generator: Adobe Illustrator 26.5.3, SVG Export Plug-In . SVG Version: 6.00 Build 0)  -->
<svg version="1.1" id="Layer_1" xmlns="http://www.w3.org/2000/svg" xmlns:xlink="http://www.w3.org/1999/xlink" x="0px" y="0px"
	 viewBox="0 0 181 50" style="enable-background:new 0 0 181 50;" xml:space="preserve">
<style type="text/css">
	.st0{fill:#FFFFFF;stroke:#FFFFFF;stroke-width:0.4;stroke-miterlimit:10;}
	.st1{fill:url(#SVGID_1_);}
	.st2{fill:#FFFFFF;}
	.st3{fill:#BCBCBC;}
	.st4{fill:url(#SVGID_00000140711145857065613020000012644305110527584652_);}
</style>
<g>
	<path class="st0" d="M56,41.6h-2.4c-0.2,0-0.3,0.1-0.3,0.3v7.5c0,0.2,0.1,0.3,0.3,0.3H56c2.6,0,4.3-1.8,4.3-4v0
		C60.4,43.3,58.6,41.6,56,41.6z M59.8,45.6c0,1.9-1.4,3.5-3.7,3.5h-2.1v-7H56C58.3,42.1,59.8,43.7,59.8,45.6L59.8,45.6z"/>
	<path class="st0" d="M70.8,41.8c-0.1-0.2-0.2-0.3-0.4-0.3h0c-0.2,0-0.3,0.1-0.4,0.3l-3.5,7.5c0,0.1,0,0.1,0,0.2
		c0,0.1,0.1,0.3,0.3,0.3c0.1,0,0.2-0.1,0.3-0.2l1-2.1h4.8l1,2.1c0.1,0.1,0.2,0.2,0.3,0.2c0.2,0,0.3-0.1,0.3-0.3c0-0.1,0-0.1,0-0.2
		L70.8,41.8z M68.2,46.8l2.2-4.7l2.2,4.7H68.2z"/>
	<path class="st0" d="M84.7,46.2c1.4-0.2,2.4-1,2.4-2.3v0c0-0.6-0.2-1.1-0.6-1.5c-0.5-0.5-1.3-0.8-2.3-0.8h-3.1
		c-0.2,0-0.3,0.1-0.3,0.3v7.5c0,0.2,0.1,0.3,0.3,0.3c0.2,0,0.3-0.1,0.3-0.3v-3.1H84l2.5,3.2c0.1,0.1,0.2,0.2,0.3,0.2
		c0.2,0,0.3-0.2,0.3-0.3c0-0.1,0-0.1-0.1-0.2L84.7,46.2z M81.4,45.8v-3.6h2.8c1.5,0,2.3,0.7,2.3,1.8v0c0,1.2-1,1.8-2.4,1.8H81.4z"/>
	<path class="st0" d="M98.4,45.5c0.7-0.3,1.4-0.8,1.4-1.9v0c0-0.5-0.2-0.9-0.5-1.3c-0.5-0.5-1.2-0.7-2.1-0.7h-3.1
		c-0.2,0-0.3,0.1-0.3,0.3v7.5c0,0.2,0.1,0.3,0.3,0.3h3.2c1.8,0,2.9-0.9,2.9-2.2v0C100.2,46.3,99.4,45.7,98.4,45.5z M94.4,42.1h2.8
		c1.3,0,2,0.6,2,1.5v0c0,1.1-0.9,1.7-2.1,1.7h-2.7V42.1z M99.6,47.4c0,1-0.9,1.7-2.3,1.7h-3v-3.2h2.8C98.7,45.9,99.6,46.4,99.6,47.4
		L99.6,47.4z"/>
	<path class="st0" d="M110.5,41.8c-0.1-0.2-0.2-0.3-0.4-0.3h0c-0.2,0-0.3,0.1-0.4,0.3l-3.5,7.5c0,0.1,0,0.1,0,0.2
		c0,0.1,0.1,0.3,0.3,0.3c0.1,0,0.2-0.1,0.3-0.2l1-2.1h4.8l1,2.1c0.1,0.1,0.2,0.2,0.3,0.2c0.2,0,0.3-0.1,0.3-0.3c0-0.1,0-0.1,0-0.2
		L110.5,41.8z M107.9,46.8l2.2-4.7l2.2,4.7H107.9z"/>
	<path class="st0" d="M126.8,49.2l-2.3-3c1.4-0.2,2.4-1,2.4-2.3v0c0-0.6-0.2-1.1-0.6-1.5c-0.5-0.5-1.3-0.8-2.3-0.8h-3.1
		c-0.2,0-0.3,0.1-0.3,0.3v7.5c0,0.2,0.1,0.3,0.3,0.3c0.2,0,0.3-0.1,0.3-0.3v-3.1h2.7l2.5,3.2c0.1,0.1,0.2,0.2,0.3,0.2
		c0.2,0,0.3-0.2,0.3-0.3C126.9,49.3,126.8,49.2,126.8,49.2z M121.1,45.8v-3.6h2.8c1.5,0,2.3,0.7,2.3,1.8v0c0,1.2-1,1.8-2.4,1.8
		H121.1z"/>
</g>
<linearGradient id="SVGID_1_" gradientUnits="userSpaceOnUse" x1="71.7368" y1="19.7234" x2="71.7368" y2="0.1758">
	<stop  offset="1.396648e-02" style="stop-color:#EC4800"/>
	<stop  offset="0.5425" style="stop-color:#F77C1D"/>
	<stop  offset="0.9757" style="stop-color:#FFA333"/>
</linearGradient>
<path class="st1" d="M92.4,19.7C92,8.9,82.9,0.2,71.7,0.2C60.5,0.2,51.4,8.9,51,19.7H92.4z"/>
<path class="st2" d="M82,19.9H61.6L56.1,7.2l9.4,4.2c0.2,0.1,0.5,0,0.6-0.1l5.8-11.1l5.7,11.1c0.1,0.2,0.4,0.2,0.6,0.1l9.3-4.2
	L82,19.9z"/>
<polygon class="st2" points="73.5,22.5 70.1,22.5 71.7,18.1 "/>
<g>
	<path class="st2" d="M71.7,9.8c0,0,4.6,5.7,5.2,6.5c0.3,0.4,0.5,0.8,0.5,1.3c0,1.3-1.3,2.4-3,2.4c-1.1,0-2.4-0.9-2.7-1.6L71.7,9.8z
		"/>
	<path class="st2" d="M71.8,9.8c0,0-4.6,5.7-5.2,6.5c-0.3,0.4-0.5,0.8-0.5,1.3c0,1.3,1.3,2.4,3,2.4c1.1,0,2.4-0.9,2.7-1.6L71.8,9.8z
		"/>
</g>
<path class="st3" d="M49.7,31.5L49.7,31.5c0-4.4,3.2-7.7,7.6-7.7c3,0,4.9,1.3,6.1,3.1l-3,2.4c-0.8-1.1-1.8-1.7-3.2-1.7
	c-2,0-3.5,1.8-3.5,3.9v0c0,2.2,1.4,4,3.5,4c1.5,0,2.4-0.7,3.3-1.8l3,2.2c-1.4,1.9-3.2,3.3-6.4,3.3C53.1,39.1,49.7,35.9,49.7,31.5z"
	/>
<linearGradient id="SVGID_00000093865962545348088350000016184709659722472107_" gradientUnits="userSpaceOnUse" x1="71.7743" y1="23.9195" x2="71.7743" y2="38.8224">
	<stop  offset="4.553078e-02" style="stop-color:#FFA333"/>
	<stop  offset="0.2484" style="stop-color:#F98623"/>
	<stop  offset="0.7021" style="stop-color:#EC4800"/>
</linearGradient>
<path style="fill:url(#SVGID_00000093865962545348088350000016184709659722472107_);" d="M69.8,23.9h3.9l6.2,14.9h-4.3l-1.1-2.6
	h-5.6l-1,2.6h-4.2L69.8,23.9z M73.4,33l-1.6-4.2L70.1,33H73.4z"/>
<path class="st3" d="M80,36.6l2.2-2.7c1.4,1.2,3,1.8,4.7,1.8c1.1,0,1.7-0.4,1.7-1v0c0-0.6-0.5-1-2.4-1.4c-3.1-0.7-5.5-1.6-5.5-4.7v0
	c0-2.7,2.1-4.7,5.6-4.7c2.5,0,4.4,0.7,6,2l-2,2.9c-1.3-1-2.8-1.5-4.1-1.5c-1,0-1.4,0.4-1.4,1v0c0,0.7,0.5,1,2.5,1.4
	c3.3,0.7,5.4,1.8,5.4,4.6v0c0,3-2.3,4.8-5.9,4.8C84.2,39.1,81.8,38.3,80,36.6z"/>
<path class="st3" d="M94.3,24h4v14.8h-4V24z"/>
<path class="st3" d="M100.6,24h3.7l6,7.8V24h4v14.8h-3.5l-6.2-8.1v8.1h-4V24z"/>
<path class="st3" d="M116,31.5L116,31.5c0-4.3,3.3-7.7,7.8-7.7c4.5,0,7.8,3.4,7.8,7.7v0c0,4.2-3.3,7.7-7.8,7.7
	C119.3,39.1,116,35.7,116,31.5z M127.5,31.5L127.5,31.5c0-2.2-1.5-4-3.7-4c-2.2,0-3.7,1.8-3.7,4v0c0,2.1,1.5,4,3.7,4
	C126,35.4,127.5,33.6,127.5,31.5z"/>
</svg>
